<svg width="18" height="18" viewBox="0 0 18 18" fill="none" xmlns="http://www.w3.org/2000/svg">
<path d="M5.83301 17.3337C5.37467 17.3337 4.98217 17.1703 4.65551 16.8437C4.32884 16.517 4.16579 16.1248 4.16634 15.667C4.16634 15.2087 4.32967 14.8162 4.65634 14.4895C4.98301 14.1628 5.37523 13.9998 5.83301 14.0003C6.29134 14.0003 6.68384 14.1637 7.01051 14.4903C7.33717 14.817 7.50023 15.2092 7.49967 15.667C7.49967 16.1253 7.33634 16.5178 7.00967 16.8445C6.68301 17.1712 6.29079 17.3342 5.83301 17.3337ZM14.1663 17.3337C13.708 17.3337 13.3155 17.1703 12.9888 16.8437C12.6622 16.517 12.4991 16.1248 12.4997 15.667C12.4997 15.2087 12.663 14.8162 12.9897 14.4895C13.3163 14.1628 13.7086 13.9998 14.1663 14.0003C14.6247 14.0003 15.0172 14.1637 15.3438 14.4903C15.6705 14.817 15.8336 15.2092 15.833 15.667C15.833 16.1253 15.6697 16.5178 15.343 16.8445C15.0163 17.1712 14.6241 17.3342 14.1663 17.3337ZM5.12467 4.00033L7.12467 8.167H12.958L15.2497 4.00033H5.12467ZM5.83301 13.167C5.20801 13.167 4.73579 12.8926 4.41634 12.3437C4.0969 11.7948 4.08301 11.2498 4.37467 10.7087L5.49967 8.667L2.49967 2.33366H1.64551C1.4094 2.33366 1.21495 2.25366 1.06217 2.09366C0.909397 1.93366 0.833008 1.73588 0.833008 1.50033C0.833008 1.26422 0.913008 1.06616 1.07301 0.906162C1.23301 0.746162 1.43079 0.66644 1.66634 0.666995H3.02051C3.17329 0.666995 3.31912 0.708662 3.45801 0.791995C3.5969 0.875328 3.70106 0.993384 3.77051 1.14616L4.33301 2.33366H16.6247C16.9997 2.33366 17.2566 2.47255 17.3955 2.75033C17.5344 3.02811 17.5275 3.31977 17.3747 3.62533L14.4163 8.95866C14.2636 9.23644 14.0622 9.45172 13.8122 9.6045C13.5622 9.75727 13.2775 9.83366 12.958 9.83366H6.74967L5.83301 11.5003H15.0205C15.2566 11.5003 15.4511 11.5803 15.6038 11.7403C15.7566 11.9003 15.833 12.0981 15.833 12.3337C15.833 12.5698 15.753 12.7678 15.593 12.9278C15.433 13.0878 15.2352 13.1676 14.9997 13.167H5.83301Z" fill="#ffffff"/>
</svg>
